<?xml version="1.0" encoding="UTF-8"?>
<svg width="64" height="64" version="1.1" viewBox="0 0 64 64" xmlns="http://www.w3.org/2000/svg">
<path d="m32.026-2.1246e-7c-17.71 0-32.026 14.667-32.026 32.811 0 14.504 9.1732 26.781 21.899 31.127 1.591 0.32667 2.1738-0.706 2.1738-1.5747 0-0.76066-0.05244-3.368-0.05244-6.0846-8.909 1.956-10.764-3.9113-10.764-3.9113-1.4317-3.8027-3.5531-4.78-3.5531-4.78-2.9159-2.01 0.2124-2.01 0.2124-2.01 3.2345 0.21733 4.9317 3.368 4.9317 3.368 2.8628 4.9973 7.4759 3.5853 9.3318 2.716 0.26484-2.1187 1.1138-3.5853 2.0152-4.4-7.1056-0.76066-14.582-3.5853-14.582-16.189 0-3.5853 1.2718-6.5186 3.287-8.8-0.31794-0.81466-1.4317-4.1833 0.3186-8.692 0 0 2.7042-0.86933 8.8015 3.368a30.791 31.313 0 0 1 8.0069-1.0867c2.7042 0 5.4608 0.38066 8.0063 1.0867 6.098-4.2373 8.8021-3.368 8.8021-3.368 1.7503 4.5086 0.63589 7.8773 0.31794 8.692 2.0683 2.2813 3.2876 5.2146 3.2876 8.8 0 12.603-7.4759 15.373-14.635 16.189 1.1669 1.032 2.1738 2.9873 2.1738 6.084 0 4.4-0.05244 7.9313-0.05244 9.0173 0 0.86933 0.58344 1.902 2.1738 1.576 12.726-4.3466 21.899-16.623 21.899-31.127 0.052445-18.145-14.317-32.811-31.973-32.811z" clip-rule="evenodd" fill="#236284" fill-rule="evenodd" stroke-width=".66108"/>
</svg>
